<svg xmlns="http://www.w3.org/2000/svg" version="1.1" xmlns:xlink="http://www.w3.org/1999/xlink"
     preserveAspectRatio="none" x="0px" y="0px" width="1940px" height="1950px" viewBox="0 0 1940 1950">
    <defs>
        <g id="Layer0_0_FILL">
            <path fill="#8E6E53" stroke="none" d="
M 640 1470
L 0 1470 0 1950 640 1950 640 1470 Z"/>

            <path fill="#937256" stroke="none" d="
M 1300 1665.55
L 1299.95 1665.5 1299.95 1709.35 1300 1709.3 1316.9 1692.4
Q 1321.9 1687.45 1316.95 1682.55
L 1300 1665.55
M 1358.7 1787.1
L 1350.5 1795.25
Q 1345.6 1800.2 1350.55 1805.1
L 1358.7 1813.25
Q 1363.6 1818.15 1368.55 1813.25
L 1376.7 1805.1
Q 1381.6 1800.2 1376.7 1795.25
L 1368.55 1787.1
Q 1363.6 1782.2 1358.7 1787.1
M 1448 1726.7
Q 1443.05 1721.75 1438.15 1726.7
L 1391.75 1773
Q 1386.8 1777.95 1391.75 1782.9
L 1438.15 1829.3
Q 1443.1 1834.2 1448 1829.25
L 1494.35 1782.9
Q 1499.25 1777.95 1494.3 1773.05
L 1448 1726.7
M 1327.6 1772.65
L 1319.4 1780.8
Q 1314.5 1785.75 1319.45 1790.65
L 1327.6 1798.8
Q 1332.5 1803.7 1337.45 1798.8
L 1345.6 1790.65
Q 1350.5 1785.75 1345.6 1780.8
L 1337.45 1772.65
Q 1332.5 1767.75 1327.6 1772.65
M 1389.25 1643.7
Q 1394.2 1638.75 1389.25 1633.85
L 1363.15 1607.65
Q 1358.2 1602.75 1353.25 1607.65
L 1327.1 1633.8
Q 1322.15 1638.75 1327.1 1643.7
L 1353.25 1669.8
Q 1358.15 1674.75 1363.15 1669.8
L 1389.25 1643.7
M 1400.45 1672.25
Q 1395.55 1677.2 1400.5 1682.1
L 1408.6 1690.25
Q 1413.5 1695.15 1418.45 1690.25
L 1426.65 1682.1
Q 1431.55 1677.2 1426.65 1672.25
L 1418.45 1664.1
Q 1413.5 1659.2 1408.6 1664.1
L 1400.45 1672.25
M 1391.7 1594.3
L 1383.55 1586.15
Q 1378.6 1581.25 1373.7 1586.15
L 1365.5 1594.3
Q 1360.6 1599.25 1365.55 1604.15
L 1373.7 1612.3
Q 1378.6 1617.2 1383.55 1612.3
L 1391.7 1604.15
Q 1396.6 1599.25 1391.7 1594.3
M 1576.3 1741.2
Q 1571.35 1746.1 1576.3 1751.05
L 1584.45 1759.2
Q 1589.35 1764.15 1594.25 1759.2
L 1602.45 1751.05
Q 1607.35 1746.1 1602.45 1741.2
L 1594.3 1733.05
Q 1589.35 1728.1 1584.45 1733.05
L 1576.3 1741.2
M 1587.1 1719.65
Q 1592.05 1714.7 1587.1 1709.8
L 1579 1701.65
Q 1574.05 1696.75 1569.1 1701.65
L 1560.95 1709.8
Q 1556.05 1714.7 1561 1719.65
L 1569.1 1727.8
Q 1574.05 1732.7 1578.95 1727.8
L 1587.1 1719.65
M 1529.9 1767
Q 1525 1771.9 1529.95 1776.85
L 1538.1 1785
Q 1543 1789.9 1547.95 1785
L 1556.1 1776.85
Q 1561 1771.9 1556.1 1767
L 1547.95 1758.85
Q 1543 1753.95 1538.1 1758.85
L 1529.9 1767
M 1470.7 1668.05
Q 1465.75 1663.15 1460.8 1668.05
L 1434.65 1694.2
Q 1429.7 1699.15 1434.6 1704.1
L 1460.8 1730.2
Q 1465.7 1735.15 1470.7 1730.2
L 1496.75 1704.1
Q 1501.75 1699.15 1496.8 1694.25
L 1470.7 1668.05
M 1495.15 1666.55
Q 1490.25 1671.5 1495.2 1676.4
L 1503.3 1684.55
Q 1508.25 1689.45 1513.2 1684.55
L 1521.35 1676.4
Q 1526.25 1671.5 1521.35 1666.55
L 1513.2 1658.4
Q 1508.25 1653.5 1503.3 1658.4
L 1495.15 1666.55
M 1604.9 1617.25
L 1586.65 1599.05
Q 1581.7 1594.1 1576.75 1599.05
L 1558.6 1617.25
Q 1553.6 1622.2 1558.55 1627.15
L 1576.75 1645.35
Q 1581.65 1650.3 1586.65 1645.35
L 1604.85 1627.15
Q 1609.8 1622.2 1604.9 1617.25
M 1837.15 1814.65
Q 1832.2 1809.7 1827.25 1814.65
L 1819.1 1822.8
Q 1814.2 1827.7 1819.15 1832.65
L 1827.25 1840.8
Q 1832.2 1845.75 1837.1 1840.8
L 1845.3 1832.65
Q 1850.2 1827.7 1845.3 1822.8
L 1837.15 1814.65
M 1853.55 1784.65
Q 1848.6 1779.75 1843.7 1784.65
L 1835.5 1792.8
Q 1830.6 1797.75 1835.55 1802.65
L 1843.7 1810.8
Q 1848.6 1815.7 1853.55 1810.8
L 1861.7 1802.65
Q 1866.6 1797.75 1861.7 1792.8
L 1853.55 1784.65
M 1628.4 1861.15
Q 1623.5 1866.05 1628.45 1871
L 1636.55 1879.2
Q 1641.45 1884.1 1646.4 1879.2
L 1654.55 1871
Q 1659.45 1866.05 1654.55 1861.15
L 1646.45 1853
Q 1641.45 1848.1 1636.55 1853
L 1628.4 1861.15
M 1638.85 1680.65
Q 1643.8 1675.7 1638.85 1670.8
L 1612.75 1644.6
Q 1607.8 1639.7 1602.85 1644.6
L 1576.7 1670.75
Q 1571.75 1675.7 1576.7 1680.65
L 1602.85 1706.75
Q 1607.75 1711.7 1612.75 1706.75
L 1638.85 1680.65
M 1904.45 1753.5
L 1912.6 1761.7
Q 1917.5 1766.6 1922.45 1761.7
L 1930.6 1753.5
Q 1935.5 1748.6 1930.6 1743.65
L 1922.45 1735.5
Q 1917.5 1730.6 1912.6 1735.5
L 1904.45 1743.65
Q 1899.55 1748.6 1904.45 1753.5
M 1844.35 1755.55
Q 1849.35 1750.6 1844.4 1745.65
L 1736.6 1637.95
Q 1731.7 1633 1726.75 1637.95
L 1619.05 1745.7
Q 1614.15 1750.65 1619.05 1755.55
L 1726.8 1863.3
Q 1731.7 1868.25 1736.6 1863.3
L 1844.35 1755.55
M 1847.75 1695.85
L 1839.6 1687.7
Q 1834.65 1682.8 1829.7 1687.7
L 1821.55 1695.85
Q 1816.65 1700.8 1821.6 1705.7
L 1829.7 1713.85
Q 1834.65 1718.75 1839.6 1713.85
L 1847.75 1705.7
Q 1852.65 1700.8 1847.75 1695.85
M 1854.1 1718.7
Q 1849.15 1723.65 1854.1 1728.55
L 1873.1 1747.55
Q 1878.05 1752.45 1883 1747.5
L 1901.95 1728.55
Q 1906.95 1723.6 1902 1718.7
L 1883 1699.65
Q 1878.05 1694.75 1873.1 1699.7
L 1854.1 1718.7
M 1800.15 1610
Q 1795.2 1605.1 1790.25 1610.05
L 1771.25 1629.05
Q 1766.3 1634 1771.25 1638.9
L 1790.25 1657.95
Q 1795.2 1662.85 1800.15 1657.9
L 1819.05 1638.9
Q 1824.05 1633.95 1819.1 1629.05
L 1800.15 1610
M 1937.95 1663.5
Q 1933 1658.6 1928.05 1663.55
L 1909.1 1682.55
Q 1904.15 1687.5 1909.1 1692.4
L 1928.05 1711.4
Q 1933 1716.3 1937.95 1711.35
L 1939.95 1709.35 1939.95 1665.5 1937.95 1663.5
M 1764.3 1571.05
Q 1759.4 1575.95 1764.35 1580.9
L 1772.5 1589.05
Q 1777.4 1593.95 1782.35 1589.05
L 1790.5 1580.9
Q 1795.4 1575.95 1790.5 1571.05
L 1782.35 1562.9
Q 1777.4 1558 1772.5 1562.9
L 1764.3 1571.05
M 1767 1533.6
Q 1762.1 1528.7 1757.15 1533.6
L 1748.95 1541.75
Q 1744.05 1546.65 1749 1551.6
L 1757.15 1559.75
Q 1762.1 1564.65 1767 1559.75
L 1775.15 1551.6
Q 1780.05 1546.65 1775.15 1541.75
L 1767 1533.6
M 1699.1 1553.35
Q 1694.15 1548.4 1689.25 1553.35
L 1642.85 1599.65
Q 1637.9 1604.6 1642.85 1609.55
L 1689.25 1655.95
Q 1694.2 1660.85 1699.1 1655.9
L 1745.45 1609.55
Q 1750.35 1604.6 1745.4 1599.7
L 1699.1 1553.35
M 1604.35 1566
Q 1609.3 1570.95 1614.2 1566
L 1622.35 1557.85
Q 1627.3 1552.95 1622.35 1548.05
L 1614.2 1539.9
Q 1609.3 1534.95 1604.35 1539.9
L 1596.2 1548.05
Q 1591.25 1552.95 1596.2 1557.85
L 1604.35 1566
M 1318.25 1808.6
L 1300 1826.85 1300 1852.55 1318.25 1870.75
Q 1323.15 1875.7 1328.15 1870.75
L 1354.25 1844.65
Q 1359.2 1839.7 1354.25 1834.8
L 1328.15 1808.6
Q 1323.2 1803.7 1318.25 1808.6
M 1932.1 1834.75
Q 1927.15 1839.7 1932.1 1844.65
L 1940 1852.55 1940 1826.85 1932.1 1834.75 Z"/>

            <path fill="#EC5495" stroke="none" d="
M 1940 1470
L 1300 1470 1300 1665.55 1316.95 1682.55
Q 1321.9 1687.45 1316.9 1692.4
L 1300 1709.3 1300 1826.85 1318.25 1808.6
Q 1323.2 1803.7 1328.15 1808.6
L 1354.25 1834.8
Q 1359.2 1839.7 1354.25 1844.65
L 1328.15 1870.75
Q 1323.15 1875.7 1318.25 1870.75
L 1300 1852.55 1300 1950 1940 1950 1940 1852.55 1932.1 1844.65
Q 1927.15 1839.7 1932.1 1834.75
L 1940 1826.85 1940 1470
M 1614.2 1566
Q 1609.3 1570.95 1604.35 1566
L 1596.2 1557.85
Q 1591.25 1552.95 1596.2 1548.05
L 1604.35 1539.9
Q 1609.3 1534.95 1614.2 1539.9
L 1622.35 1548.05
Q 1627.3 1552.95 1622.35 1557.85
L 1614.2 1566
M 1689.25 1553.35
Q 1694.15 1548.4 1699.1 1553.35
L 1745.4 1599.7
Q 1750.35 1604.6 1745.45 1609.55
L 1699.1 1655.9
Q 1694.2 1660.85 1689.25 1655.95
L 1642.85 1609.55
Q 1637.9 1604.6 1642.85 1599.65
L 1689.25 1553.35
M 1757.15 1533.6
Q 1762.1 1528.7 1767 1533.6
L 1775.15 1541.75
Q 1780.05 1546.65 1775.15 1551.6
L 1767 1559.75
Q 1762.1 1564.65 1757.15 1559.75
L 1749 1551.6
Q 1744.05 1546.65 1748.95 1541.75
L 1757.15 1533.6
M 1764.35 1580.9
Q 1759.4 1575.95 1764.3 1571.05
L 1772.5 1562.9
Q 1777.4 1558 1782.35 1562.9
L 1790.5 1571.05
Q 1795.4 1575.95 1790.5 1580.9
L 1782.35 1589.05
Q 1777.4 1593.95 1772.5 1589.05
L 1764.35 1580.9
M 1928.05 1663.55
Q 1933 1658.6 1937.95 1663.5
L 1939.95 1665.5 1939.95 1709.35 1937.95 1711.35
Q 1933 1716.3 1928.05 1711.4
L 1909.1 1692.4
Q 1904.15 1687.5 1909.1 1682.55
L 1928.05 1663.55
M 1790.25 1610.05
Q 1795.2 1605.1 1800.15 1610
L 1819.1 1629.05
Q 1824.05 1633.95 1819.05 1638.9
L 1800.15 1657.9
Q 1795.2 1662.85 1790.25 1657.95
L 1771.25 1638.9
Q 1766.3 1634 1771.25 1629.05
L 1790.25 1610.05
M 1854.1 1728.55
Q 1849.15 1723.65 1854.1 1718.7
L 1873.1 1699.7
Q 1878.05 1694.75 1883 1699.65
L 1902 1718.7
Q 1906.95 1723.6 1901.95 1728.55
L 1883 1747.5
Q 1878.05 1752.45 1873.1 1747.55
L 1854.1 1728.55
M 1839.6 1687.7
L 1847.75 1695.85
Q 1852.65 1700.8 1847.75 1705.7
L 1839.6 1713.85
Q 1834.65 1718.75 1829.7 1713.85
L 1821.6 1705.7
Q 1816.65 1700.8 1821.55 1695.85
L 1829.7 1687.7
Q 1834.65 1682.8 1839.6 1687.7
M 1844.4 1745.65
Q 1849.35 1750.6 1844.35 1755.55
L 1736.6 1863.3
Q 1731.7 1868.25 1726.8 1863.3
L 1619.05 1755.55
Q 1614.15 1750.65 1619.05 1745.7
L 1726.75 1637.95
Q 1731.7 1633 1736.6 1637.95
L 1844.4 1745.65
M 1912.6 1761.7
L 1904.45 1753.5
Q 1899.55 1748.6 1904.45 1743.65
L 1912.6 1735.5
Q 1917.5 1730.6 1922.45 1735.5
L 1930.6 1743.65
Q 1935.5 1748.6 1930.6 1753.5
L 1922.45 1761.7
Q 1917.5 1766.6 1912.6 1761.7
M 1638.85 1670.8
Q 1643.8 1675.7 1638.85 1680.65
L 1612.75 1706.75
Q 1607.75 1711.7 1602.85 1706.75
L 1576.7 1680.65
Q 1571.75 1675.7 1576.7 1670.75
L 1602.85 1644.6
Q 1607.8 1639.7 1612.75 1644.6
L 1638.85 1670.8
M 1628.45 1871
Q 1623.5 1866.05 1628.4 1861.15
L 1636.55 1853
Q 1641.45 1848.1 1646.45 1853
L 1654.55 1861.15
Q 1659.45 1866.05 1654.55 1871
L 1646.4 1879.2
Q 1641.45 1884.1 1636.55 1879.2
L 1628.45 1871
M 1843.7 1784.65
Q 1848.6 1779.75 1853.55 1784.65
L 1861.7 1792.8
Q 1866.6 1797.75 1861.7 1802.65
L 1853.55 1810.8
Q 1848.6 1815.7 1843.7 1810.8
L 1835.55 1802.65
Q 1830.6 1797.75 1835.5 1792.8
L 1843.7 1784.65
M 1827.25 1814.65
Q 1832.2 1809.7 1837.15 1814.65
L 1845.3 1822.8
Q 1850.2 1827.7 1845.3 1832.65
L 1837.1 1840.8
Q 1832.2 1845.75 1827.25 1840.8
L 1819.15 1832.65
Q 1814.2 1827.7 1819.1 1822.8
L 1827.25 1814.65
M 1586.65 1599.05
L 1604.9 1617.25
Q 1609.8 1622.2 1604.85 1627.15
L 1586.65 1645.35
Q 1581.65 1650.3 1576.75 1645.35
L 1558.55 1627.15
Q 1553.6 1622.2 1558.6 1617.25
L 1576.75 1599.05
Q 1581.7 1594.1 1586.65 1599.05
M 1495.2 1676.4
Q 1490.25 1671.5 1495.15 1666.55
L 1503.3 1658.4
Q 1508.25 1653.5 1513.2 1658.4
L 1521.35 1666.55
Q 1526.25 1671.5 1521.35 1676.4
L 1513.2 1684.55
Q 1508.25 1689.45 1503.3 1684.55
L 1495.2 1676.4
M 1460.8 1668.05
Q 1465.75 1663.15 1470.7 1668.05
L 1496.8 1694.25
Q 1501.75 1699.15 1496.75 1704.1
L 1470.7 1730.2
Q 1465.7 1735.15 1460.8 1730.2
L 1434.6 1704.1
Q 1429.7 1699.15 1434.65 1694.2
L 1460.8 1668.05
M 1529.95 1776.85
Q 1525 1771.9 1529.9 1767
L 1538.1 1758.85
Q 1543 1753.95 1547.95 1758.85
L 1556.1 1767
Q 1561 1771.9 1556.1 1776.85
L 1547.95 1785
Q 1543 1789.9 1538.1 1785
L 1529.95 1776.85
M 1587.1 1709.8
Q 1592.05 1714.7 1587.1 1719.65
L 1578.95 1727.8
Q 1574.05 1732.7 1569.1 1727.8
L 1561 1719.65
Q 1556.05 1714.7 1560.95 1709.8
L 1569.1 1701.65
Q 1574.05 1696.75 1579 1701.65
L 1587.1 1709.8
M 1576.3 1751.05
Q 1571.35 1746.1 1576.3 1741.2
L 1584.45 1733.05
Q 1589.35 1728.1 1594.3 1733.05
L 1602.45 1741.2
Q 1607.35 1746.1 1602.45 1751.05
L 1594.25 1759.2
Q 1589.35 1764.15 1584.45 1759.2
L 1576.3 1751.05
M 1383.55 1586.15
L 1391.7 1594.3
Q 1396.6 1599.25 1391.7 1604.15
L 1383.55 1612.3
Q 1378.6 1617.2 1373.7 1612.3
L 1365.55 1604.15
Q 1360.6 1599.25 1365.5 1594.3
L 1373.7 1586.15
Q 1378.6 1581.25 1383.55 1586.15
M 1400.5 1682.1
Q 1395.55 1677.2 1400.45 1672.25
L 1408.6 1664.1
Q 1413.5 1659.2 1418.45 1664.1
L 1426.65 1672.25
Q 1431.55 1677.2 1426.65 1682.1
L 1418.45 1690.25
Q 1413.5 1695.15 1408.6 1690.25
L 1400.5 1682.1
M 1389.25 1633.85
Q 1394.2 1638.75 1389.25 1643.7
L 1363.15 1669.8
Q 1358.15 1674.75 1353.25 1669.8
L 1327.1 1643.7
Q 1322.15 1638.75 1327.1 1633.8
L 1353.25 1607.65
Q 1358.2 1602.75 1363.15 1607.65
L 1389.25 1633.85
M 1319.4 1780.8
L 1327.6 1772.65
Q 1332.5 1767.75 1337.45 1772.65
L 1345.6 1780.8
Q 1350.5 1785.75 1345.6 1790.65
L 1337.45 1798.8
Q 1332.5 1803.7 1327.6 1798.8
L 1319.45 1790.65
Q 1314.5 1785.75 1319.4 1780.8
M 1438.15 1726.7
Q 1443.05 1721.75 1448 1726.7
L 1494.3 1773.05
Q 1499.25 1777.95 1494.35 1782.9
L 1448 1829.25
Q 1443.1 1834.2 1438.15 1829.3
L 1391.75 1782.9
Q 1386.8 1777.95 1391.75 1773
L 1438.15 1726.7
M 1350.5 1795.25
L 1358.7 1787.1
Q 1363.6 1782.2 1368.55 1787.1
L 1376.7 1795.25
Q 1381.6 1800.2 1376.7 1805.1
L 1368.55 1813.25
Q 1363.6 1818.15 1358.7 1813.25
L 1350.55 1805.1
Q 1345.6 1800.2 1350.5 1795.25
M 1290 1470
L 650 1470 650 1950 1290 1950 1290 1470
M 1216.95 1767.05
L 1235.95 1767.05
Q 1239.95 1767.05 1239.95 1771.05
L 1239.95 1949.95 1212.95 1949.95 1212.95 1771.05
Q 1212.95 1767.05 1216.95 1767.05
M 1095.95 1717.05
Q 1099.95 1717.05 1099.95 1721.05
L 1099.95 1949.95 1072.95 1949.95 1072.95 1721.05
Q 1072.95 1717.05 1076.95 1717.05
L 1095.95 1717.05
M 1054.95 1787
Q 1058.95 1787 1058.95 1791
L 1058.95 1949.95 1031.95 1949.95 1031.95 1791
Q 1031.95 1787 1035.95 1787
L 1054.95 1787
M 902.95 1675.85
Q 906.95 1675.85 906.95 1679.85
L 906.95 1949.95 879.95 1949.95 879.95 1679.85
Q 879.95 1675.85 883.95 1675.85
L 902.95 1675.85
M 935.95 1721.05
Q 939.95 1721.05 939.95 1725.05
L 939.95 1949.95 912.95 1949.95 912.95 1725.05
Q 912.95 1721.05 916.95 1721.05
L 935.95 1721.05
M 682 1767
Q 682 1763 686 1763
L 705 1763
Q 709 1763 709 1767
L 709 1949.95 682 1949.95 682 1767
M 1300 980
L 1300 1175.55 1316.95 1192.55
Q 1321.9 1197.45 1316.9 1202.4
L 1300 1219.3 1300 1336.85 1318.25 1318.6
Q 1323.2 1313.7 1328.15 1318.6
L 1354.25 1344.8
Q 1359.2 1349.7 1354.25 1354.65
L 1328.15 1380.75
Q 1323.15 1385.7 1318.25 1380.75
L 1300 1362.55 1300 1460 1940 1460 1940 1362.55 1932.1 1354.65
Q 1927.15 1349.7 1932.1 1344.75
L 1940 1336.85 1940 980 1300 980
M 1767 1043.6
L 1775.15 1051.75
Q 1780.05 1056.65 1775.15 1061.6
L 1767 1069.75
Q 1762.1 1074.65 1757.15 1069.75
L 1749 1061.6
Q 1744.05 1056.65 1748.95 1051.75
L 1757.15 1043.6
Q 1762.1 1038.7 1767 1043.6
M 1764.3 1081.05
L 1772.5 1072.9
Q 1777.4 1068 1782.35 1072.9
L 1790.5 1081.05
Q 1795.4 1085.95 1790.5 1090.9
L 1782.35 1099.05
Q 1777.4 1103.95 1772.5 1099.05
L 1764.35 1090.9
Q 1759.4 1085.95 1764.3 1081.05
M 1622.35 1058.05
Q 1627.3 1062.95 1622.35 1067.85
L 1614.2 1076
Q 1609.3 1080.95 1604.35 1076
L 1596.2 1067.85
Q 1591.25 1062.95 1596.2 1058.05
L 1604.35 1049.9
Q 1609.3 1044.95 1614.2 1049.9
L 1622.35 1058.05
M 1689.25 1063.35
Q 1694.15 1058.4 1699.1 1063.35
L 1745.4 1109.7
Q 1750.35 1114.6 1745.45 1119.55
L 1699.1 1165.9
Q 1694.2 1170.85 1689.25 1165.95
L 1642.85 1119.55
Q 1637.9 1114.6 1642.85 1109.65
L 1689.25 1063.35
M 1726.75 1147.95
Q 1731.7 1143 1736.6 1147.95
L 1844.4 1255.65
Q 1849.35 1260.6 1844.35 1265.55
L 1736.6 1373.3
Q 1731.7 1378.25 1726.8 1373.3
L 1619.05 1265.55
Q 1614.15 1260.65 1619.05 1255.7
L 1726.75 1147.95
M 1771.25 1148.9
Q 1766.3 1144 1771.25 1139.05
L 1790.25 1120.05
Q 1795.2 1115.1 1800.15 1120
L 1819.1 1139.05
Q 1824.05 1143.95 1819.05 1148.9
L 1800.15 1167.9
Q 1795.2 1172.85 1790.25 1167.95
L 1771.25 1148.9
M 1928.05 1173.55
Q 1933 1168.6 1937.95 1173.5
L 1939.95 1175.5 1939.95 1219.35 1937.95 1221.35
Q 1933 1226.3 1928.05 1221.4
L 1909.1 1202.4
Q 1904.15 1197.5 1909.1 1192.55
L 1928.05 1173.55
M 1353.25 1117.65
Q 1358.2 1112.75 1363.15 1117.65
L 1389.25 1143.85
Q 1394.2 1148.75 1389.25 1153.7
L 1363.15 1179.8
Q 1358.15 1184.75 1353.25 1179.8
L 1327.1 1153.7
Q 1322.15 1148.75 1327.1 1143.8
L 1353.25 1117.65
M 1365.5 1104.3
L 1373.7 1096.15
Q 1378.6 1091.25 1383.55 1096.15
L 1391.7 1104.3
Q 1396.6 1109.25 1391.7 1114.15
L 1383.55 1122.3
Q 1378.6 1127.2 1373.7 1122.3
L 1365.55 1114.15
Q 1360.6 1109.25 1365.5 1104.3
M 1400.45 1182.25
L 1408.6 1174.1
Q 1413.5 1169.2 1418.45 1174.1
L 1426.65 1182.25
Q 1431.55 1187.2 1426.65 1192.1
L 1418.45 1200.25
Q 1413.5 1205.15 1408.6 1200.25
L 1400.5 1192.1
Q 1395.55 1187.2 1400.45 1182.25
M 1495.2 1186.4
Q 1490.25 1181.5 1495.15 1176.55
L 1503.3 1168.4
Q 1508.25 1163.5 1513.2 1168.4
L 1521.35 1176.55
Q 1526.25 1181.5 1521.35 1186.4
L 1513.2 1194.55
Q 1508.25 1199.45 1503.3 1194.55
L 1495.2 1186.4
M 1460.8 1178.05
Q 1465.75 1173.15 1470.7 1178.05
L 1496.8 1204.25
Q 1501.75 1209.15 1496.75 1214.1
L 1470.7 1240.2
Q 1465.7 1245.15 1460.8 1240.2
L 1434.6 1214.1
Q 1429.7 1209.15 1434.65 1204.2
L 1460.8 1178.05
M 1586.65 1109.05
L 1604.9 1127.25
Q 1609.8 1132.2 1604.85 1137.15
L 1586.65 1155.35
Q 1581.65 1160.3 1576.75 1155.35
L 1558.55 1137.15
Q 1553.6 1132.2 1558.6 1127.25
L 1576.75 1109.05
Q 1581.7 1104.1 1586.65 1109.05
M 1602.85 1154.6
Q 1607.8 1149.7 1612.75 1154.6
L 1638.85 1180.8
Q 1643.8 1185.7 1638.85 1190.65
L 1612.75 1216.75
Q 1607.75 1221.7 1602.85 1216.75
L 1576.7 1190.65
Q 1571.75 1185.7 1576.7 1180.75
L 1602.85 1154.6
M 1587.1 1219.8
Q 1592.05 1224.7 1587.1 1229.65
L 1578.95 1237.8
Q 1574.05 1242.7 1569.1 1237.8
L 1561 1229.65
Q 1556.05 1224.7 1560.95 1219.8
L 1569.1 1211.65
Q 1574.05 1206.75 1579 1211.65
L 1587.1 1219.8
M 1576.3 1261.05
Q 1571.35 1256.1 1576.3 1251.2
L 1584.45 1243.05
Q 1589.35 1238.1 1594.3 1243.05
L 1602.45 1251.2
Q 1607.35 1256.1 1602.45 1261.05
L 1594.25 1269.2
Q 1589.35 1274.15 1584.45 1269.2
L 1576.3 1261.05
M 1547.95 1268.85
L 1556.1 1277
Q 1561 1281.9 1556.1 1286.85
L 1547.95 1295
Q 1543 1299.9 1538.1 1295
L 1529.95 1286.85
Q 1525 1281.9 1529.9 1277
L 1538.1 1268.85
Q 1543 1263.95 1547.95 1268.85
M 1494.3 1283.05
Q 1499.25 1287.95 1494.35 1292.9
L 1448 1339.25
Q 1443.1 1344.2 1438.15 1339.3
L 1391.75 1292.9
Q 1386.8 1287.95 1391.75 1283
L 1438.15 1236.7
Q 1443.05 1231.75 1448 1236.7
L 1494.3 1283.05
M 1327.6 1282.65
Q 1332.5 1277.75 1337.45 1282.65
L 1345.6 1290.8
Q 1350.5 1295.75 1345.6 1300.65
L 1337.45 1308.8
Q 1332.5 1313.7 1327.6 1308.8
L 1319.45 1300.65
Q 1314.5 1295.75 1319.4 1290.8
L 1327.6 1282.65
M 1358.7 1297.1
Q 1363.6 1292.2 1368.55 1297.1
L 1376.7 1305.25
Q 1381.6 1310.2 1376.7 1315.1
L 1368.55 1323.25
Q 1363.6 1328.15 1358.7 1323.25
L 1350.55 1315.1
Q 1345.6 1310.2 1350.5 1305.25
L 1358.7 1297.1
M 1873.1 1209.7
Q 1878.05 1204.75 1883 1209.65
L 1902 1228.7
Q 1906.95 1233.6 1901.95 1238.55
L 1883 1257.5
Q 1878.05 1262.45 1873.1 1257.55
L 1854.1 1238.55
Q 1849.15 1233.65 1854.1 1228.7
L 1873.1 1209.7
M 1912.6 1271.7
L 1904.45 1263.5
Q 1899.55 1258.6 1904.45 1253.65
L 1912.6 1245.5
Q 1917.5 1240.6 1922.45 1245.5
L 1930.6 1253.65
Q 1935.5 1258.6 1930.6 1263.5
L 1922.45 1271.7
Q 1917.5 1276.6 1912.6 1271.7
M 1839.6 1197.7
L 1847.75 1205.85
Q 1852.65 1210.8 1847.75 1215.7
L 1839.6 1223.85
Q 1834.65 1228.75 1829.7 1223.85
L 1821.6 1215.7
Q 1816.65 1210.8 1821.55 1205.85
L 1829.7 1197.7
Q 1834.65 1192.8 1839.6 1197.7
M 1843.7 1294.65
Q 1848.6 1289.75 1853.55 1294.65
L 1861.7 1302.8
Q 1866.6 1307.75 1861.7 1312.65
L 1853.55 1320.8
Q 1848.6 1325.7 1843.7 1320.8
L 1835.55 1312.65
Q 1830.6 1307.75 1835.5 1302.8
L 1843.7 1294.65
M 1827.25 1324.65
Q 1832.2 1319.7 1837.15 1324.65
L 1845.3 1332.8
Q 1850.2 1337.7 1845.3 1342.65
L 1837.1 1350.8
Q 1832.2 1355.75 1827.25 1350.8
L 1819.15 1342.65
Q 1814.2 1337.7 1819.1 1332.8
L 1827.25 1324.65
M 1628.45 1381
Q 1623.5 1376.05 1628.4 1371.15
L 1636.55 1363
Q 1641.45 1358.1 1646.45 1363
L 1654.55 1371.15
Q 1659.45 1376.05 1654.55 1381
L 1646.4 1389.2
Q 1641.45 1394.1 1636.55 1389.2
L 1628.45 1381
M 1290 980
L 650 980 650 1460 1290 1460 1290 980
M 883.95 1185.85
L 902.95 1185.85
Q 906.95 1185.85 906.95 1189.85
L 906.95 1459.95 879.95 1459.95 879.95 1189.85
Q 879.95 1185.85 883.95 1185.85
M 935.95 1231.05
Q 939.95 1231.05 939.95 1235.05
L 939.95 1459.95 912.95 1459.95 912.95 1235.05
Q 912.95 1231.05 916.95 1231.05
L 935.95 1231.05
M 682 1277
Q 682 1273 686 1273
L 705 1273
Q 709 1273 709 1277
L 709 1459.95 682 1459.95 682 1277
M 1216.95 1277.05
L 1235.95 1277.05
Q 1239.95 1277.05 1239.95 1281.05
L 1239.95 1459.95 1212.95 1459.95 1212.95 1281.05
Q 1212.95 1277.05 1216.95 1277.05
M 1095.95 1227.05
Q 1099.95 1227.05 1099.95 1231.05
L 1099.95 1459.95 1072.95 1459.95 1072.95 1231.05
Q 1072.95 1227.05 1076.95 1227.05
L 1095.95 1227.05
M 1031.95 1301
Q 1031.95 1297 1035.95 1297
L 1054.95 1297
Q 1058.95 1297 1058.95 1301
L 1058.95 1459.95 1031.95 1459.95 1031.95 1301
M 1316.9 712.4
L 1300 729.3 1300 846.85 1318.25 828.6
Q 1323.2 823.7 1328.15 828.6
L 1354.25 854.8
Q 1359.2 859.7 1354.25 864.65
L 1328.15 890.75
Q 1323.15 895.7 1318.25 890.75
L 1300 872.55 1300 970 1940 970 1940 872.55 1932.1 864.65
Q 1927.15 859.7 1932.1 854.75
L 1940 846.85 1940 490 1300 490 1300 685.55 1316.95 702.55
Q 1321.9 707.45 1316.9 712.4
M 1614.2 586
Q 1609.3 590.95 1604.35 586
L 1596.2 577.85
Q 1591.25 572.95 1596.2 568.05
L 1604.35 559.9
Q 1609.3 554.95 1614.2 559.9
L 1622.35 568.05
Q 1627.3 572.95 1622.35 577.85
L 1614.2 586
M 1383.55 606.15
L 1391.7 614.3
Q 1396.6 619.25 1391.7 624.15
L 1383.55 632.3
Q 1378.6 637.2 1373.7 632.3
L 1365.55 624.15
Q 1360.6 619.25 1365.5 614.3
L 1373.7 606.15
Q 1378.6 601.25 1383.55 606.15
M 1400.45 692.25
L 1408.6 684.1
Q 1413.5 679.2 1418.45 684.1
L 1426.65 692.25
Q 1431.55 697.2 1426.65 702.1
L 1418.45 710.25
Q 1413.5 715.15 1408.6 710.25
L 1400.5 702.1
Q 1395.55 697.2 1400.45 692.25
M 1389.25 653.85
Q 1394.2 658.75 1389.25 663.7
L 1363.15 689.8
Q 1358.15 694.75 1353.25 689.8
L 1327.1 663.7
Q 1322.15 658.75 1327.1 653.8
L 1353.25 627.65
Q 1358.2 622.75 1363.15 627.65
L 1389.25 653.85
M 1434.6 724.1
Q 1429.7 719.15 1434.65 714.2
L 1460.8 688.05
Q 1465.75 683.15 1470.7 688.05
L 1496.8 714.25
Q 1501.75 719.15 1496.75 724.1
L 1470.7 750.2
Q 1465.7 755.15 1460.8 750.2
L 1434.6 724.1
M 1438.15 746.7
Q 1443.05 741.75 1448 746.7
L 1494.3 793.05
Q 1499.25 797.95 1494.35 802.9
L 1448 849.25
Q 1443.1 854.2 1438.15 849.3
L 1391.75 802.9
Q 1386.8 797.95 1391.75 793
L 1438.15 746.7
M 1586.65 619.05
L 1604.9 637.25
Q 1609.8 642.2 1604.85 647.15
L 1586.65 665.35
Q 1581.65 670.3 1576.75 665.35
L 1558.55 647.15
Q 1553.6 642.2 1558.6 637.25
L 1576.75 619.05
Q 1581.7 614.1 1586.65 619.05
M 1602.85 664.6
Q 1607.8 659.7 1612.75 664.6
L 1638.85 690.8
Q 1643.8 695.7 1638.85 700.65
L 1612.75 726.75
Q 1607.75 731.7 1602.85 726.75
L 1576.7 700.65
Q 1571.75 695.7 1576.7 690.75
L 1602.85 664.6
M 1503.3 678.4
Q 1508.25 673.5 1513.2 678.4
L 1521.35 686.55
Q 1526.25 691.5 1521.35 696.4
L 1513.2 704.55
Q 1508.25 709.45 1503.3 704.55
L 1495.2 696.4
Q 1490.25 691.5 1495.15 686.55
L 1503.3 678.4
M 1529.9 787
L 1538.1 778.85
Q 1543 773.95 1547.95 778.85
L 1556.1 787
Q 1561 791.9 1556.1 796.85
L 1547.95 805
Q 1543 809.9 1538.1 805
L 1529.95 796.85
Q 1525 791.9 1529.9 787
M 1587.1 729.8
Q 1592.05 734.7 1587.1 739.65
L 1578.95 747.8
Q 1574.05 752.7 1569.1 747.8
L 1561 739.65
Q 1556.05 734.7 1560.95 729.8
L 1569.1 721.65
Q 1574.05 716.75 1579 721.65
L 1587.1 729.8
M 1576.3 771.05
Q 1571.35 766.1 1576.3 761.2
L 1584.45 753.05
Q 1589.35 748.1 1594.3 753.05
L 1602.45 761.2
Q 1607.35 766.1 1602.45 771.05
L 1594.25 779.2
Q 1589.35 784.15 1584.45 779.2
L 1576.3 771.05
M 1619.05 775.55
Q 1614.15 770.65 1619.05 765.7
L 1726.75 657.95
Q 1731.7 653 1736.6 657.95
L 1844.4 765.65
Q 1849.35 770.6 1844.35 775.55
L 1736.6 883.3
Q 1731.7 888.25 1726.8 883.3
L 1619.05 775.55
M 1782.35 582.9
L 1790.5 591.05
Q 1795.4 595.95 1790.5 600.9
L 1782.35 609.05
Q 1777.4 613.95 1772.5 609.05
L 1764.35 600.9
Q 1759.4 595.95 1764.3 591.05
L 1772.5 582.9
Q 1777.4 578 1782.35 582.9
M 1689.25 573.35
Q 1694.15 568.4 1699.1 573.35
L 1745.4 619.7
Q 1750.35 624.6 1745.45 629.55
L 1699.1 675.9
Q 1694.2 680.85 1689.25 675.95
L 1642.85 629.55
Q 1637.9 624.6 1642.85 619.65
L 1689.25 573.35
M 1767 553.6
L 1775.15 561.75
Q 1780.05 566.65 1775.15 571.6
L 1767 579.75
Q 1762.1 584.65 1757.15 579.75
L 1749 571.6
Q 1744.05 566.65 1748.95 561.75
L 1757.15 553.6
Q 1762.1 548.7 1767 553.6
M 1771.25 658.9
Q 1766.3 654 1771.25 649.05
L 1790.25 630.05
Q 1795.2 625.1 1800.15 630
L 1819.1 649.05
Q 1824.05 653.95 1819.05 658.9
L 1800.15 677.9
Q 1795.2 682.85 1790.25 677.95
L 1771.25 658.9
M 1928.05 683.55
Q 1933 678.6 1937.95 683.5
L 1939.95 685.5 1939.95 729.35 1937.95 731.35
Q 1933 736.3 1928.05 731.4
L 1909.1 712.4
Q 1904.15 707.5 1909.1 702.55
L 1928.05 683.55
M 1839.6 707.7
L 1847.75 715.85
Q 1852.65 720.8 1847.75 725.7
L 1839.6 733.85
Q 1834.65 738.75 1829.7 733.85
L 1821.6 725.7
Q 1816.65 720.8 1821.55 715.85
L 1829.7 707.7
Q 1834.65 702.8 1839.6 707.7
M 1854.1 748.55
Q 1849.15 743.65 1854.1 738.7
L 1873.1 719.7
Q 1878.05 714.75 1883 719.65
L 1902 738.7
Q 1906.95 743.6 1901.95 748.55
L 1883 767.5
Q 1878.05 772.45 1873.1 767.55
L 1854.1 748.55
M 1912.6 781.7
L 1904.45 773.5
Q 1899.55 768.6 1904.45 763.65
L 1912.6 755.5
Q 1917.5 750.6 1922.45 755.5
L 1930.6 763.65
Q 1935.5 768.6 1930.6 773.5
L 1922.45 781.7
Q 1917.5 786.6 1912.6 781.7
M 1843.7 804.65
Q 1848.6 799.75 1853.55 804.65
L 1861.7 812.8
Q 1866.6 817.75 1861.7 822.65
L 1853.55 830.8
Q 1848.6 835.7 1843.7 830.8
L 1835.55 822.65
Q 1830.6 817.75 1835.5 812.8
L 1843.7 804.65
M 1827.25 834.65
Q 1832.2 829.7 1837.15 834.65
L 1845.3 842.8
Q 1850.2 847.7 1845.3 852.65
L 1837.1 860.8
Q 1832.2 865.75 1827.25 860.8
L 1819.15 852.65
Q 1814.2 847.7 1819.1 842.8
L 1827.25 834.65
M 1628.4 881.15
L 1636.55 873
Q 1641.45 868.1 1646.45 873
L 1654.55 881.15
Q 1659.45 886.05 1654.55 891
L 1646.4 899.2
Q 1641.45 904.1 1636.55 899.2
L 1628.45 891
Q 1623.5 886.05 1628.4 881.15
M 1358.7 807.1
Q 1363.6 802.2 1368.55 807.1
L 1376.7 815.25
Q 1381.6 820.2 1376.7 825.1
L 1368.55 833.25
Q 1363.6 838.15 1358.7 833.25
L 1350.55 825.1
Q 1345.6 820.2 1350.5 815.25
L 1358.7 807.1
M 1337.45 792.65
L 1345.6 800.8
Q 1350.5 805.75 1345.6 810.65
L 1337.45 818.8
Q 1332.5 823.7 1327.6 818.8
L 1319.45 810.65
Q 1314.5 805.75 1319.4 800.8
L 1327.6 792.65
Q 1332.5 787.75 1337.45 792.65
M 1290 490
L 650 490 650 970 1290 970 1290 490
M 682 787
Q 682 783 686 783
L 705 783
Q 709 783 709 787
L 709 969.95 682 969.95 682 787
M 879.95 699.85
Q 879.95 695.85 883.95 695.85
L 902.95 695.85
Q 906.95 695.85 906.95 699.85
L 906.95 969.95 879.95 969.95 879.95 699.85
M 912.95 745.05
Q 912.95 741.05 916.95 741.05
L 935.95 741.05
Q 939.95 741.05 939.95 745.05
L 939.95 969.95 912.95 969.95 912.95 745.05
M 1095.95 737.05
Q 1099.95 737.05 1099.95 741.05
L 1099.95 969.95 1072.95 969.95 1072.95 741.05
Q 1072.95 737.05 1076.95 737.05
L 1095.95 737.05
M 1216.95 787.05
L 1235.95 787.05
Q 1239.95 787.05 1239.95 791.05
L 1239.95 969.95 1212.95 969.95 1212.95 791.05
Q 1212.95 787.05 1216.95 787.05
M 1054.95 807
Q 1058.95 807 1058.95 811
L 1058.95 969.95 1031.95 969.95 1031.95 811
Q 1031.95 807 1035.95 807
L 1054.95 807
M 1932.1 374.65
Q 1927.15 369.7 1932.1 364.75
L 1940 356.85 1940 0 1300 0 1300 195.55 1316.95 212.55
Q 1321.9 217.45 1316.9 222.4
L 1300 239.3 1300 356.85 1318.25 338.6
Q 1323.2 333.7 1328.15 338.6
L 1354.25 364.8
Q 1359.2 369.7 1354.25 374.65
L 1328.15 400.75
Q 1323.15 405.7 1318.25 400.75
L 1300 382.55 1300 480 1940 480 1940 382.55 1932.1 374.65
M 1790.5 110.9
L 1782.35 119.05
Q 1777.4 123.95 1772.5 119.05
L 1764.35 110.9
Q 1759.4 105.95 1764.3 101.05
L 1772.5 92.9
Q 1777.4 88 1782.35 92.9
L 1790.5 101.05
Q 1795.4 105.95 1790.5 110.9
M 1790.25 140.05
Q 1795.2 135.1 1800.15 140
L 1819.1 159.05
Q 1824.05 163.95 1819.05 168.9
L 1800.15 187.9
Q 1795.2 192.85 1790.25 187.95
L 1771.25 168.9
Q 1766.3 164 1771.25 159.05
L 1790.25 140.05
M 1928.05 193.55
Q 1933 188.6 1937.95 193.5
L 1939.95 195.5 1939.95 239.35 1937.95 241.35
Q 1933 246.3 1928.05 241.4
L 1909.1 222.4
Q 1904.15 217.5 1909.1 212.55
L 1928.05 193.55
M 1775.15 71.75
Q 1780.05 76.65 1775.15 81.6
L 1767 89.75
Q 1762.1 94.65 1757.15 89.75
L 1749 81.6
Q 1744.05 76.65 1748.95 71.75
L 1757.15 63.6
Q 1762.1 58.7 1767 63.6
L 1775.15 71.75
M 1622.35 78.05
Q 1627.3 82.95 1622.35 87.85
L 1614.2 96
Q 1609.3 100.95 1604.35 96
L 1596.2 87.85
Q 1591.25 82.95 1596.2 78.05
L 1604.35 69.9
Q 1609.3 64.95 1614.2 69.9
L 1622.35 78.05
M 1689.25 83.35
Q 1694.15 78.4 1699.1 83.35
L 1745.4 129.7
Q 1750.35 134.6 1745.45 139.55
L 1699.1 185.9
Q 1694.2 190.85 1689.25 185.95
L 1642.85 139.55
Q 1637.9 134.6 1642.85 129.65
L 1689.25 83.35
M 1726.75 167.95
Q 1731.7 163 1736.6 167.95
L 1844.4 275.65
Q 1849.35 280.6 1844.35 285.55
L 1736.6 393.3
Q 1731.7 398.25 1726.8 393.3
L 1619.05 285.55
Q 1614.15 280.65 1619.05 275.7
L 1726.75 167.95
M 1638.85 200.8
Q 1643.8 205.7 1638.85 210.65
L 1612.75 236.75
Q 1607.75 241.7 1602.85 236.75
L 1576.7 210.65
Q 1571.75 205.7 1576.7 200.75
L 1602.85 174.6
Q 1607.8 169.7 1612.75 174.6
L 1638.85 200.8
M 1628.4 391.15
L 1636.55 383
Q 1641.45 378.1 1646.45 383
L 1654.55 391.15
Q 1659.45 396.05 1654.55 401
L 1646.4 409.2
Q 1641.45 414.1 1636.55 409.2
L 1628.45 401
Q 1623.5 396.05 1628.4 391.15
M 1873.1 229.7
Q 1878.05 224.75 1883 229.65
L 1902 248.7
Q 1906.95 253.6 1901.95 258.55
L 1883 277.5
Q 1878.05 282.45 1873.1 277.55
L 1854.1 258.55
Q 1849.15 253.65 1854.1 248.7
L 1873.1 229.7
M 1912.6 291.7
L 1904.45 283.5
Q 1899.55 278.6 1904.45 273.65
L 1912.6 265.5
Q 1917.5 260.6 1922.45 265.5
L 1930.6 273.65
Q 1935.5 278.6 1930.6 283.5
L 1922.45 291.7
Q 1917.5 296.6 1912.6 291.7
M 1839.6 217.7
L 1847.75 225.85
Q 1852.65 230.8 1847.75 235.7
L 1839.6 243.85
Q 1834.65 248.75 1829.7 243.85
L 1821.6 235.7
Q 1816.65 230.8 1821.55 225.85
L 1829.7 217.7
Q 1834.65 212.8 1839.6 217.7
M 1835.5 322.8
L 1843.7 314.65
Q 1848.6 309.75 1853.55 314.65
L 1861.7 322.8
Q 1866.6 327.75 1861.7 332.65
L 1853.55 340.8
Q 1848.6 345.7 1843.7 340.8
L 1835.55 332.65
Q 1830.6 327.75 1835.5 322.8
M 1827.25 344.65
Q 1832.2 339.7 1837.15 344.65
L 1845.3 352.8
Q 1850.2 357.7 1845.3 362.65
L 1837.1 370.8
Q 1832.2 375.75 1827.25 370.8
L 1819.15 362.65
Q 1814.2 357.7 1819.1 352.8
L 1827.25 344.65
M 1503.3 188.4
Q 1508.25 183.5 1513.2 188.4
L 1521.35 196.55
Q 1526.25 201.5 1521.35 206.4
L 1513.2 214.55
Q 1508.25 219.45 1503.3 214.55
L 1495.2 206.4
Q 1490.25 201.5 1495.15 196.55
L 1503.3 188.4
M 1586.65 129.05
L 1604.9 147.25
Q 1609.8 152.2 1604.85 157.15
L 1586.65 175.35
Q 1581.65 180.3 1576.75 175.35
L 1558.55 157.15
Q 1553.6 152.2 1558.6 147.25
L 1576.75 129.05
Q 1581.7 124.1 1586.65 129.05
M 1353.25 137.65
Q 1358.2 132.75 1363.15 137.65
L 1389.25 163.85
Q 1394.2 168.75 1389.25 173.7
L 1363.15 199.8
Q 1358.15 204.75 1353.25 199.8
L 1327.1 173.7
Q 1322.15 168.75 1327.1 163.8
L 1353.25 137.65
M 1365.5 124.3
L 1373.7 116.15
Q 1378.6 111.25 1383.55 116.15
L 1391.7 124.3
Q 1396.6 129.25 1391.7 134.15
L 1383.55 142.3
Q 1378.6 147.2 1373.7 142.3
L 1365.55 134.15
Q 1360.6 129.25 1365.5 124.3
M 1408.6 194.1
Q 1413.5 189.2 1418.45 194.1
L 1426.65 202.25
Q 1431.55 207.2 1426.65 212.1
L 1418.45 220.25
Q 1413.5 225.15 1408.6 220.25
L 1400.5 212.1
Q 1395.55 207.2 1400.45 202.25
L 1408.6 194.1
M 1434.6 234.1
Q 1429.7 229.15 1434.65 224.2
L 1460.8 198.05
Q 1465.75 193.15 1470.7 198.05
L 1496.8 224.25
Q 1501.75 229.15 1496.75 234.1
L 1470.7 260.2
Q 1465.7 265.15 1460.8 260.2
L 1434.6 234.1
M 1438.15 256.7
Q 1443.05 251.75 1448 256.7
L 1494.3 303.05
Q 1499.25 307.95 1494.35 312.9
L 1448 359.25
Q 1443.1 364.2 1438.15 359.3
L 1391.75 312.9
Q 1386.8 307.95 1391.75 303
L 1438.15 256.7
M 1358.7 317.1
Q 1363.6 312.2 1368.55 317.1
L 1376.7 325.25
Q 1381.6 330.2 1376.7 335.1
L 1368.55 343.25
Q 1363.6 348.15 1358.7 343.25
L 1350.55 335.1
Q 1345.6 330.2 1350.5 325.25
L 1358.7 317.1
M 1337.45 302.65
L 1345.6 310.8
Q 1350.5 315.75 1345.6 320.65
L 1337.45 328.8
Q 1332.5 333.7 1327.6 328.8
L 1319.45 320.65
Q 1314.5 315.75 1319.4 310.8
L 1327.6 302.65
Q 1332.5 297.75 1337.45 302.65
M 1560.95 239.8
L 1569.1 231.65
Q 1574.05 226.75 1579 231.65
L 1587.1 239.8
Q 1592.05 244.7 1587.1 249.65
L 1578.95 257.8
Q 1574.05 262.7 1569.1 257.8
L 1561 249.65
Q 1556.05 244.7 1560.95 239.8
M 1576.3 281.05
Q 1571.35 276.1 1576.3 271.2
L 1584.45 263.05
Q 1589.35 258.1 1594.3 263.05
L 1602.45 271.2
Q 1607.35 276.1 1602.45 281.05
L 1594.25 289.2
Q 1589.35 294.15 1584.45 289.2
L 1576.3 281.05
M 1538.1 315
L 1529.95 306.85
Q 1525 301.9 1529.9 297
L 1538.1 288.85
Q 1543 283.95 1547.95 288.85
L 1556.1 297
Q 1561 301.9 1556.1 306.85
L 1547.95 315
Q 1543 319.9 1538.1 315
M 650 0
L 650 480 1290 480 1290 0 650 0
M 1072.95 251.05
Q 1072.95 247.05 1076.95 247.05
L 1095.95 247.05
Q 1099.95 247.05 1099.95 251.05
L 1099.95 479.95 1072.95 479.95 1072.95 251.05
M 1031.95 321
Q 1031.95 317 1035.95 317
L 1054.95 317
Q 1058.95 317 1058.95 321
L 1058.95 479.95 1031.95 479.95 1031.95 321
M 1216.95 297.05
L 1235.95 297.05
Q 1239.95 297.05 1239.95 301.05
L 1239.95 479.95 1212.95 479.95 1212.95 301.05
Q 1212.95 297.05 1216.95 297.05
M 686 293
L 705 293
Q 709 293 709 297
L 709 479.95 682 479.95 682 297
Q 682 293 686 293
M 902.95 205.85
Q 906.95 205.85 906.95 209.85
L 906.95 479.95 879.95 479.95 879.95 209.85
Q 879.95 205.85 883.95 205.85
L 902.95 205.85
M 912.95 255.05
Q 912.95 251.05 916.95 251.05
L 935.95 251.05
Q 939.95 251.05 939.95 255.05
L 939.95 479.95 912.95 479.95 912.95 255.05 Z"/>

            <path fill="#85674D" stroke="none" d="
M 686 1763
Q 682 1763 682 1767
L 682 1949.95 709 1949.95 709 1767
Q 709 1763 705 1763
L 686 1763
M 939.95 1725.05
Q 939.95 1721.05 935.95 1721.05
L 916.95 1721.05
Q 912.95 1721.05 912.95 1725.05
L 912.95 1949.95 939.95 1949.95 939.95 1725.05
M 906.95 1679.85
Q 906.95 1675.85 902.95 1675.85
L 883.95 1675.85
Q 879.95 1675.85 879.95 1679.85
L 879.95 1949.95 906.95 1949.95 906.95 1679.85
M 1058.95 1791
Q 1058.95 1787 1054.95 1787
L 1035.95 1787
Q 1031.95 1787 1031.95 1791
L 1031.95 1949.95 1058.95 1949.95 1058.95 1791
M 1099.95 1721.05
Q 1099.95 1717.05 1095.95 1717.05
L 1076.95 1717.05
Q 1072.95 1717.05 1072.95 1721.05
L 1072.95 1949.95 1099.95 1949.95 1099.95 1721.05
M 1235.95 1767.05
L 1216.95 1767.05
Q 1212.95 1767.05 1212.95 1771.05
L 1212.95 1949.95 1239.95 1949.95 1239.95 1771.05
Q 1239.95 1767.05 1235.95 1767.05 Z"/>

            <path fill="#FFEFBD" stroke="none" d="
M 640 1460
L 640 980 0 980 0 1460 640 1460 Z"/>

            <path fill="#F7E8B7" stroke="none" d="
M 1628.4 1371.15
Q 1623.5 1376.05 1628.45 1381
L 1636.55 1389.2
Q 1641.45 1394.1 1646.4 1389.2
L 1654.55 1381
Q 1659.45 1376.05 1654.55 1371.15
L 1646.45 1363
Q 1641.45 1358.1 1636.55 1363
L 1628.4 1371.15
M 1837.15 1324.65
Q 1832.2 1319.7 1827.25 1324.65
L 1819.1 1332.8
Q 1814.2 1337.7 1819.15 1342.65
L 1827.25 1350.8
Q 1832.2 1355.75 1837.1 1350.8
L 1845.3 1342.65
Q 1850.2 1337.7 1845.3 1332.8
L 1837.15 1324.65
M 1853.55 1294.65
Q 1848.6 1289.75 1843.7 1294.65
L 1835.5 1302.8
Q 1830.6 1307.75 1835.55 1312.65
L 1843.7 1320.8
Q 1848.6 1325.7 1853.55 1320.8
L 1861.7 1312.65
Q 1866.6 1307.75 1861.7 1302.8
L 1853.55 1294.65
M 1847.75 1205.85
L 1839.6 1197.7
Q 1834.65 1192.8 1829.7 1197.7
L 1821.55 1205.85
Q 1816.65 1210.8 1821.6 1215.7
L 1829.7 1223.85
Q 1834.65 1228.75 1839.6 1223.85
L 1847.75 1215.7
Q 1852.65 1210.8 1847.75 1205.85
M 1904.45 1263.5
L 1912.6 1271.7
Q 1917.5 1276.6 1922.45 1271.7
L 1930.6 1263.5
Q 1935.5 1258.6 1930.6 1253.65
L 1922.45 1245.5
Q 1917.5 1240.6 1912.6 1245.5
L 1904.45 1253.65
Q 1899.55 1258.6 1904.45 1263.5
M 1883 1209.65
Q 1878.05 1204.75 1873.1 1209.7
L 1854.1 1228.7
Q 1849.15 1233.65 1854.1 1238.55
L 1873.1 1257.55
Q 1878.05 1262.45 1883 1257.5
L 1901.95 1238.55
Q 1906.95 1233.6 1902 1228.7
L 1883 1209.65
M 1368.55 1297.1
Q 1363.6 1292.2 1358.7 1297.1
L 1350.5 1305.25
Q 1345.6 1310.2 1350.55 1315.1
L 1358.7 1323.25
Q 1363.6 1328.15 1368.55 1323.25
L 1376.7 1315.1
Q 1381.6 1310.2 1376.7 1305.25
L 1368.55 1297.1
M 1337.45 1282.65
Q 1332.5 1277.75 1327.6 1282.65
L 1319.4 1290.8
Q 1314.5 1295.75 1319.45 1300.65
L 1327.6 1308.8
Q 1332.5 1313.7 1337.45 1308.8
L 1345.6 1300.65
Q 1350.5 1295.75 1345.6 1290.8
L 1337.45 1282.65
M 1494.35 1292.9
Q 1499.25 1287.95 1494.3 1283.05
L 1448 1236.7
Q 1443.05 1231.75 1438.15 1236.7
L 1391.75 1283
Q 1386.8 1287.95 1391.75 1292.9
L 1438.15 1339.3
Q 1443.1 1344.2 1448 1339.25
L 1494.35 1292.9
M 1556.1 1277
L 1547.95 1268.85
Q 1543 1263.95 1538.1 1268.85
L 1529.9 1277
Q 1525 1281.9 1529.95 1286.85
L 1538.1 1295
Q 1543 1299.9 1547.95 1295
L 1556.1 1286.85
Q 1561 1281.9 1556.1 1277
M 1576.3 1251.2
Q 1571.35 1256.1 1576.3 1261.05
L 1584.45 1269.2
Q 1589.35 1274.15 1594.25 1269.2
L 1602.45 1261.05
Q 1607.35 1256.1 1602.45 1251.2
L 1594.3 1243.05
Q 1589.35 1238.1 1584.45 1243.05
L 1576.3 1251.2
M 1587.1 1229.65
Q 1592.05 1224.7 1587.1 1219.8
L 1579 1211.65
Q 1574.05 1206.75 1569.1 1211.65
L 1560.95 1219.8
Q 1556.05 1224.7 1561 1229.65
L 1569.1 1237.8
Q 1574.05 1242.7 1578.95 1237.8
L 1587.1 1229.65
M 1612.75 1154.6
Q 1607.8 1149.7 1602.85 1154.6
L 1576.7 1180.75
Q 1571.75 1185.7 1576.7 1190.65
L 1602.85 1216.75
Q 1607.75 1221.7 1612.75 1216.75
L 1638.85 1190.65
Q 1643.8 1185.7 1638.85 1180.8
L 1612.75 1154.6
M 1604.9 1127.25
L 1586.65 1109.05
Q 1581.7 1104.1 1576.75 1109.05
L 1558.6 1127.25
Q 1553.6 1132.2 1558.55 1137.15
L 1576.75 1155.35
Q 1581.65 1160.3 1586.65 1155.35
L 1604.85 1137.15
Q 1609.8 1132.2 1604.9 1127.25
M 1470.7 1178.05
Q 1465.75 1173.15 1460.8 1178.05
L 1434.65 1204.2
Q 1429.7 1209.15 1434.6 1214.1
L 1460.8 1240.2
Q 1465.7 1245.15 1470.7 1240.2
L 1496.75 1214.1
Q 1501.75 1209.15 1496.8 1204.25
L 1470.7 1178.05
M 1495.15 1176.55
Q 1490.25 1181.5 1495.2 1186.4
L 1503.3 1194.55
Q 1508.25 1199.45 1513.2 1194.55
L 1521.35 1186.4
Q 1526.25 1181.5 1521.35 1176.55
L 1513.2 1168.4
Q 1508.25 1163.5 1503.3 1168.4
L 1495.15 1176.55
M 1408.6 1174.1
L 1400.45 1182.25
Q 1395.55 1187.2 1400.5 1192.1
L 1408.6 1200.25
Q 1413.5 1205.15 1418.45 1200.25
L 1426.65 1192.1
Q 1431.55 1187.2 1426.65 1182.25
L 1418.45 1174.1
Q 1413.5 1169.2 1408.6 1174.1
M 1373.7 1096.15
L 1365.5 1104.3
Q 1360.6 1109.25 1365.55 1114.15
L 1373.7 1122.3
Q 1378.6 1127.2 1383.55 1122.3
L 1391.7 1114.15
Q 1396.6 1109.25 1391.7 1104.3
L 1383.55 1096.15
Q 1378.6 1091.25 1373.7 1096.15
M 1363.15 1117.65
Q 1358.2 1112.75 1353.25 1117.65
L 1327.1 1143.8
Q 1322.15 1148.75 1327.1 1153.7
L 1353.25 1179.8
Q 1358.15 1184.75 1363.15 1179.8
L 1389.25 1153.7
Q 1394.2 1148.75 1389.25 1143.85
L 1363.15 1117.65
M 1937.95 1173.5
Q 1933 1168.6 1928.05 1173.55
L 1909.1 1192.55
Q 1904.15 1197.5 1909.1 1202.4
L 1928.05 1221.4
Q 1933 1226.3 1937.95 1221.35
L 1939.95 1219.35 1939.95 1175.5 1937.95 1173.5
M 1771.25 1139.05
Q 1766.3 1144 1771.25 1148.9
L 1790.25 1167.95
Q 1795.2 1172.85 1800.15 1167.9
L 1819.05 1148.9
Q 1824.05 1143.95 1819.1 1139.05
L 1800.15 1120
Q 1795.2 1115.1 1790.25 1120.05
L 1771.25 1139.05
M 1736.6 1147.95
Q 1731.7 1143 1726.75 1147.95
L 1619.05 1255.7
Q 1614.15 1260.65 1619.05 1265.55
L 1726.8 1373.3
Q 1731.7 1378.25 1736.6 1373.3
L 1844.35 1265.55
Q 1849.35 1260.6 1844.4 1255.65
L 1736.6 1147.95
M 1699.1 1063.35
Q 1694.15 1058.4 1689.25 1063.35
L 1642.85 1109.65
Q 1637.9 1114.6 1642.85 1119.55
L 1689.25 1165.95
Q 1694.2 1170.85 1699.1 1165.9
L 1745.45 1119.55
Q 1750.35 1114.6 1745.4 1109.7
L 1699.1 1063.35
M 1622.35 1067.85
Q 1627.3 1062.95 1622.35 1058.05
L 1614.2 1049.9
Q 1609.3 1044.95 1604.35 1049.9
L 1596.2 1058.05
Q 1591.25 1062.95 1596.2 1067.85
L 1604.35 1076
Q 1609.3 1080.95 1614.2 1076
L 1622.35 1067.85
M 1772.5 1072.9
L 1764.3 1081.05
Q 1759.4 1085.95 1764.35 1090.9
L 1772.5 1099.05
Q 1777.4 1103.95 1782.35 1099.05
L 1790.5 1090.9
Q 1795.4 1085.95 1790.5 1081.05
L 1782.35 1072.9
Q 1777.4 1068 1772.5 1072.9
M 1775.15 1051.75
L 1767 1043.6
Q 1762.1 1038.7 1757.15 1043.6
L 1748.95 1051.75
Q 1744.05 1056.65 1749 1061.6
L 1757.15 1069.75
Q 1762.1 1074.65 1767 1069.75
L 1775.15 1061.6
Q 1780.05 1056.65 1775.15 1051.75
M 1300 1175.55
L 1299.95 1175.5 1299.95 1219.35 1300 1219.3 1316.9 1202.4
Q 1321.9 1197.45 1316.95 1192.55
L 1300 1175.55
M 1932.1 1344.75
Q 1927.15 1349.7 1932.1 1354.65
L 1940 1362.55 1940 1336.85 1932.1 1344.75
M 1328.15 1318.6
Q 1323.2 1313.7 1318.25 1318.6
L 1300 1336.85 1300 1362.55 1318.25 1380.75
Q 1323.15 1385.7 1328.15 1380.75
L 1354.25 1354.65
Q 1359.2 1349.7 1354.25 1344.8
L 1328.15 1318.6 Z"/>

            <path fill="#E9DBAD" stroke="none" d="
M 1035.95 1297
Q 1031.95 1297 1031.95 1301
L 1031.95 1459.95 1058.95 1459.95 1058.95 1301
Q 1058.95 1297 1054.95 1297
L 1035.95 1297
M 1099.95 1231.05
Q 1099.95 1227.05 1095.95 1227.05
L 1076.95 1227.05
Q 1072.95 1227.05 1072.95 1231.05
L 1072.95 1459.95 1099.95 1459.95 1099.95 1231.05
M 1235.95 1277.05
L 1216.95 1277.05
Q 1212.95 1277.05 1212.95 1281.05
L 1212.95 1459.95 1239.95 1459.95 1239.95 1281.05
Q 1239.95 1277.05 1235.95 1277.05
M 686 1273
Q 682 1273 682 1277
L 682 1459.95 709 1459.95 709 1277
Q 709 1273 705 1273
L 686 1273
M 939.95 1235.05
Q 939.95 1231.05 935.95 1231.05
L 916.95 1231.05
Q 912.95 1231.05 912.95 1235.05
L 912.95 1459.95 939.95 1459.95 939.95 1235.05
M 902.95 1185.85
L 883.95 1185.85
Q 879.95 1185.85 879.95 1189.85
L 879.95 1459.95 906.95 1459.95 906.95 1189.85
Q 906.95 1185.85 902.95 1185.85 Z"/>

            <path fill="#54447B" stroke="none" d="
M 640 490
L 0 490 0 970 640 970 640 490 Z"/>

            <path fill="#594783" stroke="none" d="
M 1345.6 800.8
L 1337.45 792.65
Q 1332.5 787.75 1327.6 792.65
L 1319.4 800.8
Q 1314.5 805.75 1319.45 810.65
L 1327.6 818.8
Q 1332.5 823.7 1337.45 818.8
L 1345.6 810.65
Q 1350.5 805.75 1345.6 800.8
M 1368.55 807.1
Q 1363.6 802.2 1358.7 807.1
L 1350.5 815.25
Q 1345.6 820.2 1350.55 825.1
L 1358.7 833.25
Q 1363.6 838.15 1368.55 833.25
L 1376.7 825.1
Q 1381.6 820.2 1376.7 815.25
L 1368.55 807.1
M 1636.55 873
L 1628.4 881.15
Q 1623.5 886.05 1628.45 891
L 1636.55 899.2
Q 1641.45 904.1 1646.4 899.2
L 1654.55 891
Q 1659.45 886.05 1654.55 881.15
L 1646.45 873
Q 1641.45 868.1 1636.55 873
M 1837.15 834.65
Q 1832.2 829.7 1827.25 834.65
L 1819.1 842.8
Q 1814.2 847.7 1819.15 852.65
L 1827.25 860.8
Q 1832.2 865.75 1837.1 860.8
L 1845.3 852.65
Q 1850.2 847.7 1845.3 842.8
L 1837.15 834.65
M 1853.55 804.65
Q 1848.6 799.75 1843.7 804.65
L 1835.5 812.8
Q 1830.6 817.75 1835.55 822.65
L 1843.7 830.8
Q 1848.6 835.7 1853.55 830.8
L 1861.7 822.65
Q 1866.6 817.75 1861.7 812.8
L 1853.55 804.65
M 1904.45 773.5
L 1912.6 781.7
Q 1917.5 786.6 1922.45 781.7
L 1930.6 773.5
Q 1935.5 768.6 1930.6 763.65
L 1922.45 755.5
Q 1917.5 750.6 1912.6 755.5
L 1904.45 763.65
Q 1899.55 768.6 1904.45 773.5
M 1854.1 738.7
Q 1849.15 743.65 1854.1 748.55
L 1873.1 767.55
Q 1878.05 772.45 1883 767.5
L 1901.95 748.55
Q 1906.95 743.6 1902 738.7
L 1883 719.65
Q 1878.05 714.75 1873.1 719.7
L 1854.1 738.7
M 1847.75 715.85
L 1839.6 707.7
Q 1834.65 702.8 1829.7 707.7
L 1821.55 715.85
Q 1816.65 720.8 1821.6 725.7
L 1829.7 733.85
Q 1834.65 738.75 1839.6 733.85
L 1847.75 725.7
Q 1852.65 720.8 1847.75 715.85
M 1937.95 683.5
Q 1933 678.6 1928.05 683.55
L 1909.1 702.55
Q 1904.15 707.5 1909.1 712.4
L 1928.05 731.4
Q 1933 736.3 1937.95 731.35
L 1939.95 729.35 1939.95 685.5 1937.95 683.5
M 1771.25 649.05
Q 1766.3 654 1771.25 658.9
L 1790.25 677.95
Q 1795.2 682.85 1800.15 677.9
L 1819.05 658.9
Q 1824.05 653.95 1819.1 649.05
L 1800.15 630
Q 1795.2 625.1 1790.25 630.05
L 1771.25 649.05
M 1775.15 561.75
L 1767 553.6
Q 1762.1 548.7 1757.15 553.6
L 1748.95 561.75
Q 1744.05 566.65 1749 571.6
L 1757.15 579.75
Q 1762.1 584.65 1767 579.75
L 1775.15 571.6
Q 1780.05 566.65 1775.15 561.75
M 1699.1 573.35
Q 1694.15 568.4 1689.25 573.35
L 1642.85 619.65
Q 1637.9 624.6 1642.85 629.55
L 1689.25 675.95
Q 1694.2 680.85 1699.1 675.9
L 1745.45 629.55
Q 1750.35 624.6 1745.4 619.7
L 1699.1 573.35
M 1790.5 591.05
L 1782.35 582.9
Q 1777.4 578 1772.5 582.9
L 1764.3 591.05
Q 1759.4 595.95 1764.35 600.9
L 1772.5 609.05
Q 1777.4 613.95 1782.35 609.05
L 1790.5 600.9
Q 1795.4 595.95 1790.5 591.05
M 1619.05 765.7
Q 1614.15 770.65 1619.05 775.55
L 1726.8 883.3
Q 1731.7 888.25 1736.6 883.3
L 1844.35 775.55
Q 1849.35 770.6 1844.4 765.65
L 1736.6 657.95
Q 1731.7 653 1726.75 657.95
L 1619.05 765.7
M 1576.3 761.2
Q 1571.35 766.1 1576.3 771.05
L 1584.45 779.2
Q 1589.35 784.15 1594.25 779.2
L 1602.45 771.05
Q 1607.35 766.1 1602.45 761.2
L 1594.3 753.05
Q 1589.35 748.1 1584.45 753.05
L 1576.3 761.2
M 1587.1 739.65
Q 1592.05 734.7 1587.1 729.8
L 1579 721.65
Q 1574.05 716.75 1569.1 721.65
L 1560.95 729.8
Q 1556.05 734.7 1561 739.65
L 1569.1 747.8
Q 1574.05 752.7 1578.95 747.8
L 1587.1 739.65
M 1538.1 778.85
L 1529.9 787
Q 1525 791.9 1529.95 796.85
L 1538.1 805
Q 1543 809.9 1547.95 805
L 1556.1 796.85
Q 1561 791.9 1556.1 787
L 1547.95 778.85
Q 1543 773.95 1538.1 778.85
M 1513.2 678.4
Q 1508.25 673.5 1503.3 678.4
L 1495.15 686.55
Q 1490.25 691.5 1495.2 696.4
L 1503.3 704.55
Q 1508.25 709.45 1513.2 704.55
L 1521.35 696.4
Q 1526.25 691.5 1521.35 686.55
L 1513.2 678.4
M 1612.75 664.6
Q 1607.8 659.7 1602.85 664.6
L 1576.7 690.75
Q 1571.75 695.7 1576.7 700.65
L 1602.85 726.75
Q 1607.75 731.7 1612.75 726.75
L 1638.85 700.65
Q 1643.8 695.7 1638.85 690.8
L 1612.75 664.6
M 1604.9 637.25
L 1586.65 619.05
Q 1581.7 614.1 1576.75 619.05
L 1558.6 637.25
Q 1553.6 642.2 1558.55 647.15
L 1576.75 665.35
Q 1581.65 670.3 1586.65 665.35
L 1604.85 647.15
Q 1609.8 642.2 1604.9 637.25
M 1448 746.7
Q 1443.05 741.75 1438.15 746.7
L 1391.75 793
Q 1386.8 797.95 1391.75 802.9
L 1438.15 849.3
Q 1443.1 854.2 1448 849.25
L 1494.35 802.9
Q 1499.25 797.95 1494.3 793.05
L 1448 746.7
M 1434.65 714.2
Q 1429.7 719.15 1434.6 724.1
L 1460.8 750.2
Q 1465.7 755.15 1470.7 750.2
L 1496.75 724.1
Q 1501.75 719.15 1496.8 714.25
L 1470.7 688.05
Q 1465.75 683.15 1460.8 688.05
L 1434.65 714.2
M 1389.25 663.7
Q 1394.2 658.75 1389.25 653.85
L 1363.15 627.65
Q 1358.2 622.75 1353.25 627.65
L 1327.1 653.8
Q 1322.15 658.75 1327.1 663.7
L 1353.25 689.8
Q 1358.15 694.75 1363.15 689.8
L 1389.25 663.7
M 1408.6 684.1
L 1400.45 692.25
Q 1395.55 697.2 1400.5 702.1
L 1408.6 710.25
Q 1413.5 715.15 1418.45 710.25
L 1426.65 702.1
Q 1431.55 697.2 1426.65 692.25
L 1418.45 684.1
Q 1413.5 679.2 1408.6 684.1
M 1391.7 614.3
L 1383.55 606.15
Q 1378.6 601.25 1373.7 606.15
L 1365.5 614.3
Q 1360.6 619.25 1365.55 624.15
L 1373.7 632.3
Q 1378.6 637.2 1383.55 632.3
L 1391.7 624.15
Q 1396.6 619.25 1391.7 614.3
M 1604.35 586
Q 1609.3 590.95 1614.2 586
L 1622.35 577.85
Q 1627.3 572.95 1622.35 568.05
L 1614.2 559.9
Q 1609.3 554.95 1604.35 559.9
L 1596.2 568.05
Q 1591.25 572.95 1596.2 577.85
L 1604.35 586
M 1300 685.55
L 1299.95 685.5 1299.95 729.35 1300 729.3 1316.9 712.4
Q 1321.9 707.45 1316.95 702.55
L 1300 685.55
M 1328.15 828.6
Q 1323.2 823.7 1318.25 828.6
L 1300 846.85 1300 872.55 1318.25 890.75
Q 1323.15 895.7 1328.15 890.75
L 1354.25 864.65
Q 1359.2 859.7 1354.25 854.8
L 1328.15 828.6
M 1932.1 854.75
Q 1927.15 859.7 1932.1 864.65
L 1940 872.55 1940 846.85 1932.1 854.75 Z"/>

            <path fill="#D8BF9E" stroke="none" d="
M 640 480
L 640 0 0 0 0 480 640 480 Z"/>

            <path fill="#4C3E70" stroke="none" d="
M 1058.95 811
Q 1058.95 807 1054.95 807
L 1035.95 807
Q 1031.95 807 1031.95 811
L 1031.95 969.95 1058.95 969.95 1058.95 811
M 1235.95 787.05
L 1216.95 787.05
Q 1212.95 787.05 1212.95 791.05
L 1212.95 969.95 1239.95 969.95 1239.95 791.05
Q 1239.95 787.05 1235.95 787.05
M 1099.95 741.05
Q 1099.95 737.05 1095.95 737.05
L 1076.95 737.05
Q 1072.95 737.05 1072.95 741.05
L 1072.95 969.95 1099.95 969.95 1099.95 741.05
M 916.95 741.05
Q 912.95 741.05 912.95 745.05
L 912.95 969.95 939.95 969.95 939.95 745.05
Q 939.95 741.05 935.95 741.05
L 916.95 741.05
M 883.95 695.85
Q 879.95 695.85 879.95 699.85
L 879.95 969.95 906.95 969.95 906.95 699.85
Q 906.95 695.85 902.95 695.85
L 883.95 695.85
M 686 783
Q 682 783 682 787
L 682 969.95 709 969.95 709 787
Q 709 783 705 783
L 686 783 Z"/>

            <path fill="#E1C8A9" stroke="none" d="
M 1300 195.55
L 1299.95 195.5 1299.95 239.35 1300 239.3 1316.9 222.4
Q 1321.9 217.45 1316.95 212.55
L 1300 195.55
M 1529.95 306.85
L 1538.1 315
Q 1543 319.9 1547.95 315
L 1556.1 306.85
Q 1561 301.9 1556.1 297
L 1547.95 288.85
Q 1543 283.95 1538.1 288.85
L 1529.9 297
Q 1525 301.9 1529.95 306.85
M 1576.3 271.2
Q 1571.35 276.1 1576.3 281.05
L 1584.45 289.2
Q 1589.35 294.15 1594.25 289.2
L 1602.45 281.05
Q 1607.35 276.1 1602.45 271.2
L 1594.3 263.05
Q 1589.35 258.1 1584.45 263.05
L 1576.3 271.2
M 1569.1 231.65
L 1560.95 239.8
Q 1556.05 244.7 1561 249.65
L 1569.1 257.8
Q 1574.05 262.7 1578.95 257.8
L 1587.1 249.65
Q 1592.05 244.7 1587.1 239.8
L 1579 231.65
Q 1574.05 226.75 1569.1 231.65
M 1345.6 310.8
L 1337.45 302.65
Q 1332.5 297.75 1327.6 302.65
L 1319.4 310.8
Q 1314.5 315.75 1319.45 320.65
L 1327.6 328.8
Q 1332.5 333.7 1337.45 328.8
L 1345.6 320.65
Q 1350.5 315.75 1345.6 310.8
M 1368.55 317.1
Q 1363.6 312.2 1358.7 317.1
L 1350.5 325.25
Q 1345.6 330.2 1350.55 335.1
L 1358.7 343.25
Q 1363.6 348.15 1368.55 343.25
L 1376.7 335.1
Q 1381.6 330.2 1376.7 325.25
L 1368.55 317.1
M 1448 256.7
Q 1443.05 251.75 1438.15 256.7
L 1391.75 303
Q 1386.8 307.95 1391.75 312.9
L 1438.15 359.3
Q 1443.1 364.2 1448 359.25
L 1494.35 312.9
Q 1499.25 307.95 1494.3 303.05
L 1448 256.7
M 1434.65 224.2
Q 1429.7 229.15 1434.6 234.1
L 1460.8 260.2
Q 1465.7 265.15 1470.7 260.2
L 1496.75 234.1
Q 1501.75 229.15 1496.8 224.25
L 1470.7 198.05
Q 1465.75 193.15 1460.8 198.05
L 1434.65 224.2
M 1418.45 194.1
Q 1413.5 189.2 1408.6 194.1
L 1400.45 202.25
Q 1395.55 207.2 1400.5 212.1
L 1408.6 220.25
Q 1413.5 225.15 1418.45 220.25
L 1426.65 212.1
Q 1431.55 207.2 1426.65 202.25
L 1418.45 194.1
M 1373.7 116.15
L 1365.5 124.3
Q 1360.6 129.25 1365.55 134.15
L 1373.7 142.3
Q 1378.6 147.2 1383.55 142.3
L 1391.7 134.15
Q 1396.6 129.25 1391.7 124.3
L 1383.55 116.15
Q 1378.6 111.25 1373.7 116.15
M 1363.15 137.65
Q 1358.2 132.75 1353.25 137.65
L 1327.1 163.8
Q 1322.15 168.75 1327.1 173.7
L 1353.25 199.8
Q 1358.15 204.75 1363.15 199.8
L 1389.25 173.7
Q 1394.2 168.75 1389.25 163.85
L 1363.15 137.65
M 1604.9 147.25
L 1586.65 129.05
Q 1581.7 124.1 1576.75 129.05
L 1558.6 147.25
Q 1553.6 152.2 1558.55 157.15
L 1576.75 175.35
Q 1581.65 180.3 1586.65 175.35
L 1604.85 157.15
Q 1609.8 152.2 1604.9 147.25
M 1513.2 188.4
Q 1508.25 183.5 1503.3 188.4
L 1495.15 196.55
Q 1490.25 201.5 1495.2 206.4
L 1503.3 214.55
Q 1508.25 219.45 1513.2 214.55
L 1521.35 206.4
Q 1526.25 201.5 1521.35 196.55
L 1513.2 188.4
M 1837.15 344.65
Q 1832.2 339.7 1827.25 344.65
L 1819.1 352.8
Q 1814.2 357.7 1819.15 362.65
L 1827.25 370.8
Q 1832.2 375.75 1837.1 370.8
L 1845.3 362.65
Q 1850.2 357.7 1845.3 352.8
L 1837.15 344.65
M 1843.7 314.65
L 1835.5 322.8
Q 1830.6 327.75 1835.55 332.65
L 1843.7 340.8
Q 1848.6 345.7 1853.55 340.8
L 1861.7 332.65
Q 1866.6 327.75 1861.7 322.8
L 1853.55 314.65
Q 1848.6 309.75 1843.7 314.65
M 1847.75 225.85
L 1839.6 217.7
Q 1834.65 212.8 1829.7 217.7
L 1821.55 225.85
Q 1816.65 230.8 1821.6 235.7
L 1829.7 243.85
Q 1834.65 248.75 1839.6 243.85
L 1847.75 235.7
Q 1852.65 230.8 1847.75 225.85
M 1904.45 283.5
L 1912.6 291.7
Q 1917.5 296.6 1922.45 291.7
L 1930.6 283.5
Q 1935.5 278.6 1930.6 273.65
L 1922.45 265.5
Q 1917.5 260.6 1912.6 265.5
L 1904.45 273.65
Q 1899.55 278.6 1904.45 283.5
M 1883 229.65
Q 1878.05 224.75 1873.1 229.7
L 1854.1 248.7
Q 1849.15 253.65 1854.1 258.55
L 1873.1 277.55
Q 1878.05 282.45 1883 277.5
L 1901.95 258.55
Q 1906.95 253.6 1902 248.7
L 1883 229.65
M 1636.55 383
L 1628.4 391.15
Q 1623.5 396.05 1628.45 401
L 1636.55 409.2
Q 1641.45 414.1 1646.4 409.2
L 1654.55 401
Q 1659.45 396.05 1654.55 391.15
L 1646.45 383
Q 1641.45 378.1 1636.55 383
M 1638.85 210.65
Q 1643.8 205.7 1638.85 200.8
L 1612.75 174.6
Q 1607.8 169.7 1602.85 174.6
L 1576.7 200.75
Q 1571.75 205.7 1576.7 210.65
L 1602.85 236.75
Q 1607.75 241.7 1612.75 236.75
L 1638.85 210.65
M 1736.6 167.95
Q 1731.7 163 1726.75 167.95
L 1619.05 275.7
Q 1614.15 280.65 1619.05 285.55
L 1726.8 393.3
Q 1731.7 398.25 1736.6 393.3
L 1844.35 285.55
Q 1849.35 280.6 1844.4 275.65
L 1736.6 167.95
M 1699.1 83.35
Q 1694.15 78.4 1689.25 83.35
L 1642.85 129.65
Q 1637.9 134.6 1642.85 139.55
L 1689.25 185.95
Q 1694.2 190.85 1699.1 185.9
L 1745.45 139.55
Q 1750.35 134.6 1745.4 129.7
L 1699.1 83.35
M 1622.35 87.85
Q 1627.3 82.95 1622.35 78.05
L 1614.2 69.9
Q 1609.3 64.95 1604.35 69.9
L 1596.2 78.05
Q 1591.25 82.95 1596.2 87.85
L 1604.35 96
Q 1609.3 100.95 1614.2 96
L 1622.35 87.85
M 1775.15 81.6
Q 1780.05 76.65 1775.15 71.75
L 1767 63.6
Q 1762.1 58.7 1757.15 63.6
L 1748.95 71.75
Q 1744.05 76.65 1749 81.6
L 1757.15 89.75
Q 1762.1 94.65 1767 89.75
L 1775.15 81.6
M 1937.95 193.5
Q 1933 188.6 1928.05 193.55
L 1909.1 212.55
Q 1904.15 217.5 1909.1 222.4
L 1928.05 241.4
Q 1933 246.3 1937.95 241.35
L 1939.95 239.35 1939.95 195.5 1937.95 193.5
M 1800.15 140
Q 1795.2 135.1 1790.25 140.05
L 1771.25 159.05
Q 1766.3 164 1771.25 168.9
L 1790.25 187.95
Q 1795.2 192.85 1800.15 187.9
L 1819.05 168.9
Q 1824.05 163.95 1819.1 159.05
L 1800.15 140
M 1782.35 119.05
L 1790.5 110.9
Q 1795.4 105.95 1790.5 101.05
L 1782.35 92.9
Q 1777.4 88 1772.5 92.9
L 1764.3 101.05
Q 1759.4 105.95 1764.35 110.9
L 1772.5 119.05
Q 1777.4 123.95 1782.35 119.05
M 1328.15 338.6
Q 1323.2 333.7 1318.25 338.6
L 1300 356.85 1300 382.55 1318.25 400.75
Q 1323.15 405.7 1328.15 400.75
L 1354.25 374.65
Q 1359.2 369.7 1354.25 364.8
L 1328.15 338.6
M 1932.1 364.75
Q 1927.15 369.7 1932.1 374.65
L 1940 382.55 1940 356.85 1932.1 364.75 Z"/>

            <path fill="#CBB394" stroke="none" d="
M 916.95 251.05
Q 912.95 251.05 912.95 255.05
L 912.95 479.95 939.95 479.95 939.95 255.05
Q 939.95 251.05 935.95 251.05
L 916.95 251.05
M 906.95 209.85
Q 906.95 205.85 902.95 205.85
L 883.95 205.85
Q 879.95 205.85 879.95 209.85
L 879.95 479.95 906.95 479.95 906.95 209.85
M 705 293
L 686 293
Q 682 293 682 297
L 682 479.95 709 479.95 709 297
Q 709 293 705 293
M 1235.95 297.05
L 1216.95 297.05
Q 1212.95 297.05 1212.95 301.05
L 1212.95 479.95 1239.95 479.95 1239.95 301.05
Q 1239.95 297.05 1235.95 297.05
M 1035.95 317
Q 1031.95 317 1031.95 321
L 1031.95 479.95 1058.95 479.95 1058.95 321
Q 1058.95 317 1054.95 317
L 1035.95 317
M 1076.95 247.05
Q 1072.95 247.05 1072.95 251.05
L 1072.95 479.95 1099.95 479.95 1099.95 251.05
Q 1099.95 247.05 1095.95 247.05
L 1076.95 247.05 Z"/>
        </g>
    </defs>

    <g transform="matrix( 1, 0, 0, 1, 0,0) ">
        <use xlink:href="#Layer0_0_FILL"/>
    </g>
</svg>
